<?xml version="1.0" standalone="no"?>
<!DOCTYPE svg PUBLIC "-//W3C//DTD SVG 20010904//EN"
 "http://www.w3.org/TR/2001/REC-SVG-20010904/DTD/svg10.dtd">
<svg version="1.0" xmlns="http://www.w3.org/2000/svg"
 width="770.000000pt" height="770.000000pt" viewBox="0 0 770.000000 770.000000"
 preserveAspectRatio="xMidYMid meet">
<metadata>
Created by potrace 1.11, written by Peter Selinger 2001-2013
</metadata>
<g transform="translate(0.000000,770.000000) scale(0.100000,-0.100000)"
fill="#000000" stroke="none">
<path d="M1560 5980 c0 -5 -11 -10 -25 -10 -14 0 -25 -4 -25 -10 0 -5 -7 -10
-15 -10 -8 0 -15 -4 -15 -9 0 -5 -9 -11 -20 -14 -13 -3 -20 -14 -20 -30 0 -14
-4 -29 -10 -32 -5 -3 -10 -33 -10 -66 0 -33 -4 -59 -10 -59 -7 0 -10 -637 -10
-1890 0 -1168 4 -1890 9 -1890 6 0 11 -15 13 -32 2 -25 8 -34 26 -36 12 -2 22
-8 22 -13 0 -5 53 -9 120 -9 72 0 120 4 120 10 0 5 11 12 25 16 l25 6 0 1732
c1 1710 1 1731 20 1691 10 -22 22 -57 25 -77 4 -21 10 -38 14 -38 4 0 16 -36
26 -80 10 -44 22 -80 26 -80 4 0 12 -23 18 -52 7 -28 16 -57 21 -63 5 -6 16
-39 24 -74 8 -34 19 -68 24 -74 5 -7 15 -37 22 -67 7 -30 16 -57 19 -60 3 -3
15 -30 25 -60 10 -30 22 -59 26 -65 4 -5 13 -36 20 -67 7 -32 16 -58 20 -58 4
0 11 -16 15 -36 3 -20 11 -45 16 -55 5 -11 13 -27 18 -37 5 -10 12 -33 16 -52
4 -19 15 -53 25 -75 10 -22 21 -58 25 -80 4 -22 13 -44 19 -50 7 -5 18 -36 26
-67 7 -32 16 -58 20 -58 4 0 13 -26 19 -57 7 -32 19 -65 26 -73 7 -8 18 -35
25 -60 6 -25 17 -58 25 -75 7 -16 18 -56 25 -87 6 -32 15 -58 20 -58 5 0 14
-19 21 -42 6 -24 15 -47 19 -53 5 -5 16 -43 26 -82 9 -40 21 -73 26 -73 4 0 8
-9 8 -20 0 -11 4 -28 9 -38 23 -43 40 -91 51 -144 6 -32 15 -58 19 -58 5 0 16
-29 26 -65 9 -36 20 -65 24 -65 4 0 13 -27 20 -60 8 -33 17 -60 22 -60 5 0 9
-8 9 -17 0 -20 32 -115 41 -123 3 -3 11 -27 19 -55 7 -27 16 -54 20 -60 4 -5
13 -35 21 -65 7 -30 18 -59 24 -65 6 -5 17 -36 25 -67 7 -32 16 -58 20 -58 4
0 12 -19 19 -42 7 -23 21 -58 32 -77 10 -20 19 -41 19 -47 0 -6 7 -17 16 -24
8 -8 21 -28 29 -47 8 -18 21 -33 29 -33 9 0 16 -4 16 -10 0 -5 7 -10 15 -10 8
0 15 -6 15 -14 0 -22 24 -26 158 -26 139 0 172 5 172 26 0 8 6 14 14 14 8 0
21 22 30 49 14 45 16 232 16 2006 0 2054 1 1985 -39 1985 -6 0 -11 5 -11 10 0
6 -47 10 -120 10 -73 0 -120 -4 -120 -10 0 -5 -5 -10 -11 -10 -19 0 -39 -28
-39 -54 0 -14 -4 -28 -10 -31 -7 -4 -10 -385 -10 -1111 0 -729 3 -1104 10
-1104 7 0 10 -182 10 -525 0 -289 -3 -525 -8 -525 -4 0 -16 38 -27 85 -10 47
-22 85 -25 85 -4 0 -12 24 -19 53 -8 28 -17 57 -21 62 -5 6 -16 42 -26 80 -10
39 -21 72 -25 75 -3 3 -11 28 -19 55 -7 28 -16 55 -20 60 -4 6 -16 43 -25 83
-10 39 -21 72 -25 72 -4 0 -13 27 -20 60 -7 33 -16 60 -19 60 -3 0 -15 29 -25
65 -10 36 -22 65 -25 65 -4 0 -13 27 -19 60 -7 33 -17 60 -21 60 -5 0 -11 15
-14 33 -3 18 -14 53 -25 78 -12 24 -26 64 -33 89 -7 25 -16 50 -19 55 -4 6
-15 42 -25 80 -10 39 -24 79 -31 90 -6 11 -18 44 -25 73 -7 28 -16 52 -20 52
-4 0 -10 18 -14 39 -3 22 -13 47 -20 58 -8 10 -15 28 -15 40 0 12 -4 24 -9 27
-5 3 -12 26 -15 51 -4 25 -11 45 -16 45 -5 0 -11 15 -15 33 -4 17 -13 46 -20
62 -7 17 -21 57 -31 90 -10 33 -21 62 -24 65 -4 3 -12 28 -20 55 -7 28 -16 55
-20 60 -4 6 -13 33 -20 60 -8 28 -21 66 -31 85 -10 19 -21 52 -24 73 -4 20
-10 37 -14 37 -4 0 -16 36 -26 80 -10 44 -21 80 -25 80 -4 0 -13 20 -20 45 -7
25 -16 45 -20 45 -4 0 -13 26 -19 58 -6 31 -17 69 -25 84 -8 15 -17 42 -21 60
-4 18 -13 40 -19 48 -7 8 -21 43 -31 78 -10 34 -22 62 -27 62 -4 0 -8 8 -8 18
0 25 -70 131 -91 137 -11 4 -19 11 -19 16 0 5 -7 9 -15 9 -8 0 -15 5 -15 10 0
6 -25 10 -55 10 -30 0 -55 5 -55 10 0 6 -37 10 -90 10 -53 0 -90 -4 -90 -10z"/>
<path d="M4300 5980 c0 -5 -8 -10 -18 -10 -10 0 -28 -9 -40 -20 -12 -11 -25
-20 -29 -20 -14 0 -33 -77 -33 -130 0 -27 -4 -50 -10 -50 -7 0 -10 -638 -10
-1895 0 -1171 4 -1895 9 -1895 6 0 11 -15 13 -32 2 -25 8 -34 26 -36 12 -2 22
-8 22 -13 0 -5 48 -9 107 -9 78 0 116 4 145 17 l38 17 0 899 0 900 182 -6
c110 -4 184 -11 186 -17 2 -5 15 -10 28 -10 13 0 33 -9 44 -20 11 -11 27 -20
35 -20 8 0 15 -4 15 -10 0 -5 7 -10 15 -10 8 0 15 -7 15 -15 0 -8 9 -19 20
-25 12 -6 25 -22 30 -36 5 -13 16 -24 23 -24 14 0 37 -40 37 -64 0 -7 9 -24
21 -37 11 -13 23 -36 26 -51 3 -16 9 -28 13 -28 4 0 15 -26 25 -57 9 -32 23
-72 31 -90 8 -17 17 -52 20 -77 4 -25 10 -46 13 -46 3 0 15 -37 25 -82 11 -46
23 -88 28 -94 4 -6 13 -38 19 -70 6 -33 14 -63 19 -69 8 -11 40 -165 40 -195
0 -11 4 -20 9 -20 5 0 14 -28 20 -62 6 -34 14 -64 19 -67 5 -3 15 -42 22 -86
7 -44 18 -89 24 -100 7 -11 18 -51 25 -89 8 -38 20 -81 27 -95 8 -14 14 -36
14 -49 0 -33 25 -76 54 -96 20 -13 51 -16 151 -16 69 0 125 4 125 9 0 5 9 11
19 14 11 3 22 17 26 36 7 34 -12 201 -24 201 -4 0 -13 33 -20 73 -7 39 -19 86
-26 102 -7 17 -18 57 -25 90 -8 33 -17 65 -20 70 -4 6 -10 28 -14 50 -10 62
-29 139 -37 150 -3 6 -12 35 -20 65 -7 30 -16 60 -20 65 -4 6 -10 30 -14 55
-8 51 -23 116 -35 145 -18 43 -30 89 -30 111 0 13 -3 24 -8 24 -4 0 -16 38
-27 85 -10 47 -23 85 -27 85 -4 0 -8 13 -8 29 0 17 -4 32 -9 35 -5 4 -12 24
-16 45 -4 22 -12 42 -19 44 -7 3 -16 21 -19 41 -3 20 -15 49 -26 65 -12 16
-21 39 -21 50 0 12 -7 24 -15 27 -8 4 -15 12 -15 20 0 8 -8 22 -17 32 -10 9
-24 30 -30 45 -7 15 -17 27 -23 27 -6 0 -28 18 -49 40 -21 22 -43 40 -49 40
-7 0 -12 3 -12 6 0 10 28 34 39 34 6 0 11 4 11 10 0 5 15 12 34 16 25 4 36 12
40 29 3 13 16 25 31 29 14 4 25 13 25 21 0 8 4 15 9 15 14 0 56 41 70 68 6 12
18 22 26 22 8 0 15 6 15 13 0 7 19 40 43 72 23 33 49 80 57 105 8 25 18 48 23
51 4 3 15 32 23 65 8 32 19 68 24 79 13 30 30 121 30 165 0 21 5 42 10 45 12
7 14 425 2 425 -4 0 -13 44 -20 97 -7 53 -16 101 -21 107 -5 6 -14 36 -20 66
-7 30 -23 76 -36 102 -14 26 -25 52 -25 58 0 6 -5 16 -10 23 -21 25 -59 83
-76 115 -9 17 -23 32 -30 32 -8 0 -14 7 -14 15 0 9 -8 19 -17 22 -10 4 -34 24
-54 45 -20 21 -43 38 -52 38 -10 0 -17 7 -17 15 0 8 -14 17 -35 21 -19 3 -35
10 -35 15 0 5 -7 9 -15 9 -8 0 -15 6 -15 14 0 9 -18 16 -55 21 -30 3 -55 11
-55 16 0 5 -15 9 -34 9 -19 0 -38 5 -41 10 -4 6 -57 10 -126 10 -73 0 -119 4
-119 10 0 6 -103 10 -290 10 -187 0 -290 -4 -290 -10z m530 -450 c0 -6 42 -10
105 -10 63 0 105 -4 105 -10 0 -5 15 -10 33 -10 17 0 41 -7 51 -15 11 -8 28
-15 38 -15 10 0 18 -5 18 -11 0 -15 22 -35 48 -43 12 -4 22 -13 22 -21 0 -7 4
-15 8 -17 5 -1 25 -28 45 -58 21 -30 44 -64 52 -74 8 -11 17 -40 21 -65 4 -25
11 -49 16 -52 37 -24 35 -562 -3 -589 -4 -3 -12 -24 -18 -47 -7 -24 -15 -43
-19 -43 -4 0 -14 -21 -21 -46 -8 -25 -20 -48 -27 -51 -7 -3 -16 -13 -19 -24
-4 -10 -13 -19 -21 -19 -8 0 -14 -4 -14 -8 0 -11 -35 -52 -44 -52 -6 0 -35
-23 -61 -47 -6 -6 -33 -14 -58 -18 -30 -5 -47 -12 -47 -21 0 -12 -45 -14 -260
-14 l-260 0 0 695 0 695 155 0 c97 0 155 -4 155 -10z"/>
</g>
</svg>
